<?xml version="1.0" encoding="UTF-8"?>
<!DOCTYPE svg PUBLIC "-//W3C//DTD SVG 1.1//EN" "http://www.w3.org/Graphics/SVG/1.1/DTD/svg11.dtd">
<svg xmlns="http://www.w3.org/2000/svg" version="1.1" width="64px" height="64px" style="shape-rendering:geometricPrecision; text-rendering:geometricPrecision; image-rendering:optimizeQuality; fill-rule:evenodd; clip-rule:evenodd" xmlns:xlink="http://www.w3.org/1999/xlink">
<g><path style="opacity:0.8" fill="#070606" d="M 50.5,8.5 C 49.5489,9.91866 49.2155,11.5853 49.5,13.5C 51.4147,13.7845 53.0813,13.4511 54.5,12.5C 56.0233,9.63563 58.3567,7.96896 61.5,7.5C 63.2415,14.8519 60.9081,20.3519 54.5,24C 56.5938,25.3515 58.9272,25.8515 61.5,25.5C 61.6653,29.1817 61.4986,32.8484 61,36.5C 53.5133,38.1188 52.0133,42.1188 56.5,48.5C 53.7007,55.8457 49.2007,57.5123 43,53.5C 38.0721,53.9315 36.2387,56.5982 37.5,61.5C 33.4454,61.8242 29.4454,61.4909 25.5,60.5C 24.8108,58.556 24.3108,56.556 24,54.5C 20.3519,60.9081 14.8519,63.2415 7.5,61.5C 7.96896,58.3567 9.63563,56.0233 12.5,54.5C 13.4511,53.0813 13.7845,51.4147 13.5,49.5C 11.5853,49.2155 9.91866,49.5489 8.5,50.5C 6.97667,53.3644 4.64333,55.031 1.5,55.5C -0.241479,48.1481 2.09185,42.6481 8.5,39C 6.40617,37.6485 4.07284,37.1485 1.5,37.5C 1.5,33.5 1.5,29.5 1.5,25.5C 6.40183,26.7613 9.06849,24.9279 9.5,20C 8.38022,18.2626 7.38022,16.4292 6.5,14.5C 8.19629,10.8037 10.863,8.13699 14.5,6.5C 16.4466,7.27702 18.2799,8.27702 20,9.5C 24.9279,9.06849 26.7613,6.40183 25.5,1.5C 29.5,1.5 33.5,1.5 37.5,1.5C 37.1485,4.07284 37.6485,6.40617 39,8.5C 42.6481,2.09185 48.1481,-0.241479 55.5,1.5C 55.031,4.64333 53.3644,6.97667 50.5,8.5 Z M 24.5,31.5 C 23.8333,31.5 23.5,31.8333 23.5,32.5C 21.264,33.3891 19.264,34.7224 17.5,36.5C 14.9999,29.1688 16.8333,23.1688 23,18.5C 23.2275,22.9171 23.7275,27.2504 24.5,31.5 Z M 38.5,30.5 C 39.5,29.8333 40.5,29.1667 41.5,28.5C 43.0443,28.2969 44.3777,27.6302 45.5,26.5C 47.0432,31.4024 46.5432,36.069 44,40.5C 41.0004,38.5088 38.1671,36.3422 35.5,34C 36.7101,32.9609 37.7101,31.7942 38.5,30.5 Z"/></g>
<g><path style="opacity:1" fill="#32469c" d="M 27.5,3.5 C 30.1667,3.5 32.8333,3.5 35.5,3.5C 35.3398,5.19919 35.5065,6.86586 36,8.5C 38.8255,10.0643 39.8255,12.3977 39,15.5C 27.3596,11.4842 19.0263,15.1509 14,26.5C 13.2302,30.8411 13.7302,35.0078 15.5,39C 13.8659,39.4935 12.1992,39.6602 10.5,39.5C 10.67,38.1779 10.3366,37.0113 9.5,36C 7.5273,35.5045 5.5273,35.3379 3.5,35.5C 3.5,32.8333 3.5,30.1667 3.5,27.5C 9.11551,27.9445 12.1155,25.2779 12.5,19.5C 11.2959,17.5259 10.4625,15.5259 10,13.5C 11.3513,11.981 12.8513,10.6477 14.5,9.5C 17.9059,13.2516 21.5726,13.4183 25.5,10C 27.229,8.2111 27.8957,6.04443 27.5,3.5 Z"/></g>
<g><path style="opacity:1" fill="#f8ce56" d="M 58.5,16.5 C 54.5208,18.7195 50.1875,19.8861 45.5,20C 43.6298,22.0396 41.6298,23.8729 39.5,25.5C 40.4998,19.5403 41.6665,13.5403 43,7.5C 45.1414,4.50877 47.9748,3.34211 51.5,4C 47.8864,6.94416 46.5531,10.7775 47.5,15.5C 52.2225,16.4469 56.0558,15.1136 59,11.5C 59.6397,13.265 59.4731,14.9317 58.5,16.5 Z"/></g>
<g><path style="opacity:0.992" fill="#32469e" d="M 50.5,8.5 C 51.5,10.1667 52.8333,11.5 54.5,12.5C 53.0813,13.4511 51.4147,13.7845 49.5,13.5C 49.2155,11.5853 49.5489,9.91866 50.5,8.5 Z"/></g>
<g><path style="opacity:1" fill="#5f3d0d" d="M 28.5,17.5 C 34.5971,16.2634 37.4305,18.5967 37,24.5C 35.3829,23.1487 34.2162,21.482 33.5,19.5C 32.3768,23.6214 29.7102,25.2881 25.5,24.5C 25.1663,21.509 26.1663,19.1757 28.5,17.5 Z"/></g>
<g><path style="opacity:1" fill="#e9b011" d="M 58.5,16.5 C 55.3491,20.7993 51.0157,22.6327 45.5,22C 43.0771,23.5707 41.7438,25.7374 41.5,28.5C 40.5,29.1667 39.5,29.8333 38.5,30.5C 38.6287,28.7839 38.962,27.1172 39.5,25.5C 41.6298,23.8729 43.6298,22.0396 45.5,20C 50.1875,19.8861 54.5208,18.7195 58.5,16.5 Z"/></g>
<g><path style="opacity:1" fill="#31469c" d="M 47.5,24.5 C 48.9187,23.5489 50.5853,23.2155 52.5,23.5C 52.33,24.8221 52.6634,25.9887 53.5,27C 55.4727,27.4955 57.4727,27.6621 59.5,27.5C 59.5,30.1667 59.5,32.8333 59.5,35.5C 53.5578,34.6466 50.5578,37.3133 50.5,43.5C 51.7041,45.4741 52.5375,47.4741 53,49.5C 51.6487,51.019 50.1487,52.3523 48.5,53.5C 44.7885,49.8964 40.7885,49.7297 36.5,53C 35.5769,55.0408 35.2436,57.2075 35.5,59.5C 32.8333,59.5 30.1667,59.5 27.5,59.5C 27.6621,57.4727 27.4955,55.4727 27,53.5C 25.9887,52.6634 24.8221,52.33 23.5,52.5C 23.3398,50.8008 23.5065,49.1341 24,47.5C 32.4325,51.0292 39.7659,49.3625 46,42.5C 49.7927,36.5802 50.2927,30.5802 47.5,24.5 Z"/></g>
<g><path style="opacity:1" fill="#e9d1bd" d="M 32.5,24.5 C 37.0089,24.8057 38.1756,26.8057 36,30.5C 31.3664,34.4638 27.8664,33.4638 25.5,27.5C 28.1024,26.8676 30.4357,25.8676 32.5,24.5 Z"/></g>
<g><path style="opacity:1" fill="#c0ac9c" d="M 29.5,34.5 C 34.7859,34.3868 35.4525,35.7202 31.5,38.5C 29.8888,37.6798 29.2222,36.3464 29.5,34.5 Z"/></g>
<g><path style="opacity:1" fill="#84b3f0" d="M 26.5,38.5 C 29.4841,38.7868 30.8174,40.4535 30.5,43.5C 27.5,43.5 24.5,43.5 21.5,43.5C 21.3505,42.448 21.5172,41.448 22,40.5C 23.6225,39.9011 25.1225,39.2344 26.5,38.5 Z"/></g>
<g><path style="opacity:1" fill="#86b6f4" d="M 32.5,39.5 C 35.1873,39.3359 37.854,39.5026 40.5,40C 41.3366,41.0113 41.67,42.1779 41.5,43.5C 38.5,43.5 35.5,43.5 32.5,43.5C 32.5,42.1667 32.5,40.8333 32.5,39.5 Z"/></g>
<g><path style="opacity:1" fill="#f4c950" d="M 24.5,31.5 C 28.8349,35.0017 28.1682,37.1683 22.5,38C 19.0034,41.4014 18.6701,45.2347 21.5,49.5C 21.1768,55.9929 17.8435,59.1596 11.5,59C 15.1136,56.0558 16.4469,52.2225 15.5,47.5C 10.7775,46.5531 6.94416,47.8864 4,51.5C 3.35035,46.9727 5.18368,43.806 9.5,42C 16.7733,42.5456 21.44,39.379 23.5,32.5C 23.5,31.8333 23.8333,31.5 24.5,31.5 Z"/></g>
<g><path style="opacity:0.887" fill="#2d4192" d="M 8.5,50.5 C 9.91866,49.5489 11.5853,49.2155 13.5,49.5C 13.7845,51.4147 13.4511,53.0813 12.5,54.5C 11.5,52.8333 10.1667,51.5 8.5,50.5 Z"/></g>
</svg>
